<svg width="300" height="300" viewBox="0 0 300 300" fill="none" xmlns="http://www.w3.org/2000/svg">
<rect width="300" height="300" rx="24" fill="#F5F5F5"/>
<path fill-rule="evenodd" clip-rule="evenodd" d="M69.25 23.25H10.75V38.75V276.75H69.25V35.25V23.25ZM33.25 69.75V114.75H47.25V69.75H33.25Z" fill="#2F3547"/>
<path fill-rule="evenodd" clip-rule="evenodd" d="M69.25 35.25V276.75H129.25V35.25H69.25ZM111.75 140.25H86.75V171.25H111.75V140.25Z" fill="#93B577"/>
<path fill-rule="evenodd" clip-rule="evenodd" d="M177.75 52.75L134.75 74.25L214.869 230.25L237.362 274.048L280.75 250.75L177.75 52.75ZM196.75 118.75L177.75 127.75L193.75 161.25L213.25 151.75L196.75 118.75Z" fill="#BF282A"/>
<path d="M33.25 114.75V69.75H47.25V114.75H33.25Z" fill="#869F9B"/>
<path d="M86.75 140.25H111.75V171.25H86.75V140.25Z" fill="#617C4A"/>
<path d="M177.75 127.75L196.75 118.75L213.25 151.75L193.75 161.25L177.75 127.75Z" fill="#D77878"/>
<path d="M10.75 276.75H289.25M69.25 276.75H10.75V38.75M69.25 276.75V35.25M69.25 276.75H129.25V35.25H69.25M69.25 35.25V23.25H10.75V38.75M238.75 276.75L237.362 274.048M237.362 274.048L280.75 250.75L177.75 52.75L134.75 74.25L214.869 230.25M237.362 274.048L214.869 230.25M10.75 38.75H44.25M23.25 234.75H56.75M82.75 218.25H116.25M82.75 234.75H116.25M198.25 175.75L223.25 163.25M229.75 175.75L204.75 188.25M211.25 201.25L235.75 188.25M242.75 200.25L217.75 213.25M214.869 230.25L239.25 217.75M33.25 114.75V69.75H47.25V114.75H33.25ZM86.75 140.25H111.75V171.25H86.75V140.25ZM177.75 127.75L196.75 118.75L213.25 151.75L193.75 161.25L177.75 127.75Z" stroke="black" stroke-width="5"/>
</svg>
